<?xml version="1.0" standalone="no"?>
<!DOCTYPE svg PUBLIC "-//W3C//DTD SVG 20010904//EN"
 "http://www.w3.org/TR/2001/REC-SVG-20010904/DTD/svg10.dtd">
<svg version="1.0" xmlns="http://www.w3.org/2000/svg"
 width="700.000000pt" height="700.000000pt" viewBox="0 0 700.000000 700.000000"
 preserveAspectRatio="xMidYMid meet">
<metadata>
Created by potrace 1.11, written by Peter Selinger 2001-2013
</metadata>
<g transform="translate(0.000000,700.000000) scale(0.100000,-0.100000)"
fill="#000000" stroke="none">
<path d="M1655 6456 c-178 -43 -312 -205 -318 -383 -1 -42 -2 -44 -27 -37 -45
13 -162 11 -208 -3 -136 -40 -244 -153 -280 -289 -15 -57 -19 -64 -42 -64 -40
0 -122 -44 -157 -84 -55 -62 -78 -124 -74 -197 1 -32 -4 -40 -46 -74 -127
-101 -253 -254 -336 -407 -57 -104 -115 -257 -133 -348 -2 -14 -7 -32 -10 -40
-18 -49 -25 -239 -11 -303 9 -45 40 -121 54 -135 7 -7 13 -17 13 -22 0 -19
100 -103 155 -129 72 -34 101 -41 180 -43 139 -3 244 56 261 147 l6 35 48 -94
c108 -213 261 -407 414 -524 l29 -23 -21 -38 c-27 -48 -27 -72 -3 -137 70
-184 209 -318 398 -383 l78 -27 -18 -54 c-101 -302 9 -640 263 -813 25 -16 47
-32 50 -34 3 -3 5 -307 5 -676 1 -370 4 -682 9 -695 4 -12 16 -27 28 -33 17
-9 33 -2 106 47 48 31 91 57 97 57 5 0 47 -25 92 -56 80 -54 106 -61 124 -34
4 5 16 0 28 -12 11 -11 26 -21 32 -21 7 0 72 29 145 65 l134 65 135 -66 c84
-41 142 -63 153 -60 44 14 46 33 46 497 l0 440 40 -39 c135 -129 319 -187 509
-160 164 23 321 127 420 276 l35 54 22 -45 c29 -57 128 -168 188 -210 153
-105 326 -148 494 -121 42 7 86 15 97 19 21 6 21 6 21 -320 0 -203 4 -334 10
-345 24 -46 43 -43 139 20 l90 59 82 -55 c101 -68 102 -69 123 -48 16 15 19
15 41 -6 28 -27 31 -26 190 52 l120 59 133 -66 c73 -36 139 -65 146 -65 18 0
45 32 50 61 2 13 5 272 5 576 l1 552 38 26 c116 78 223 230 258 366 22 86 22
88 23 136 l1 42 63 -3 c257 -11 502 173 585 437 23 74 22 254 -2 327 -36 108
-95 202 -170 269 l-38 35 28 23 c103 84 174 193 193 298 19 104 2 224 -46 320
-28 54 -163 195 -188 195 -23 0 -18 18 23 84 55 88 170 336 156 336 -3 0 0 8
5 18 5 10 19 65 31 123 31 147 33 385 6 504 -20 91 -28 119 -50 180 -68 197
-215 429 -291 461 -99 41 -192 -81 -130 -168 122 -170 167 -251 211 -381 14
-40 25 -74 25 -77 0 -3 2 -14 4 -25 3 -11 8 -33 11 -50 10 -48 13 -289 4 -331
-5 -22 -11 -55 -14 -74 -13 -80 -91 -286 -130 -342 -12 -17 -15 -14 -31 34
-59 183 -222 334 -417 384 -93 25 -240 19 -320 -11 -12 -5 -22 7 -39 42 -188
391 -682 557 -1074 360 -43 -21 -122 -73 -143 -94 -7 -7 -15 -13 -17 -13 -2 0
-22 37 -43 83 -90 191 -254 344 -455 428 -37 16 -85 32 -105 36 -20 4 -39 8
-42 8 -161 38 -386 10 -548 -70 -125 -61 -253 -173 -329 -290 -26 -38 -48 -72
-49 -74 -2 -2 -19 10 -38 27 -19 16 -55 44 -80 61 -45 31 -45 31 -45 91 1 129
-53 215 -170 275 -42 21 -50 29 -56 62 -12 64 -65 151 -126 206 -72 65 -150
97 -249 104 -41 3 -77 7 -79 9 -2 2 -5 18 -7 36 -5 44 -57 144 -99 191 -40 44
-133 103 -190 119 -57 16 -152 18 -210 4z"/>
</g>
</svg>
